<svg id="Layer_1" data-name="Layer 1" xmlns="http://www.w3.org/2000/svg" width="745" height="512.98" viewBox="0 0 745 512.98"><defs><style>.cls-1{fill:#fefefe;}.cls-2{fill:#9e242e;}.cls-3{fill:#ff912e;}.cls-4{fill:#f41cb2;}.cls-5{fill:#f25511;}</style></defs><title>myntra-logo-freelogovectors.net</title><g id="_fefefeff" data-name="#fefefeff"><path class="cls-1" d="M158.94,164.32c14.73-17.6,30.73-36.52,53.29-43.78,25.45-6.74,46.92,13.31,62.92,30.3C317,198.66,347.36,255.19,375.68,311.73c15.42-34.34,34.37-67.11,54.24-99.07,18.92-28.87,38.45-58.36,65.57-80.3,12.58-9.66,30.11-18.81,45.75-10.76,22.2,11.78,39,31.2,54.75,50.38,33.42,43,59.6,91,83.25,139.9,29.56,62.91,55.12,128.63,65.94,197.6,3.21,31.93,6.09,67.83-13.23,95.61-14.87,21.76-43.27,29.3-68.31,25-21.87-7.69-40.93-22-55.26-40.13-33.9-42-54.09-92.81-72.86-142.86-2.81-8.78-6.09-17.38-9.12-26.09a260.24,260.24,0,0,1-7.29,26.28C500,498.14,479.56,549.86,444.57,592.11a121.86,121.86,0,0,1-53.44,38c-30.21,6.31-59.41-9.51-78.95-31.6-38.16-41.63-59.41-95.25-79-147.41-3.79-10.72-7.62-21.47-10.32-32.51-3.06,11.19-6.92,22.16-10.93,33-17.57,48.15-37.69,96.45-69.73,137-17.32,20.81-40.1,41.19-68.49,42.61-26.17,2.26-51.65-14.65-61.6-38.6C-2.17,559.41,2,521.94,8.4,487.42,22,421.34,47.29,358.24,76.93,297.84c23.4-46.73,49.39-92.55,82-133.52m14.91,14.55c-32.33,41.3-58,87.3-81.1,134.21C63.92,373.7,38,436.83,26.92,503.35c-3.9,18.41-4.05,37.58-2,56.25,2.23,17.56,9.19,36.52,25.41,45.63,15.45,9.08,35.39,5.43,49.54-4.55,25.26-17.61,42-44.51,56.46-71.08,31-59.38,51.39-123.72,66.81-188.71,16.33,66.6,37,132.83,69.62,193.41,12.94,22.42,26.69,45.67,47.94,61.16,10.64,9.59,24.82,16.37,39.44,14.73,16.33-1.68,30.11-12.07,41.44-23.22,19.61-20.16,33.86-44.8,46.4-69.77,26.79-55,45.35-113.65,59.86-173,18,71.81,40.49,143.76,79,207.44,14.47,22.27,31.49,45.42,56.94,55.77,17.93,7.29,40.46.91,50.74-15.82C726.92,571.73,727.87,547,726,524.24c-2.52-36.82-13.31-72.39-25-107.13A959.4,959.4,0,0,0,609,225c-17.43-26.9-35.51-54-59.82-75.23-8.6-7.55-21.36-14.84-32.3-7.26-20.92,12.76-35.54,33.25-50,52.57-35.72,50.85-65.14,106.11-89.23,163.33-.73.88-2.23,2.55-3,3.43a157.38,157.38,0,0,0-7-19.06c-24.71-53.51-52.3-106.08-87.22-153.68-12-15.67-24.28-31.71-40.46-43.3-6.89-4.93-16.08-9.23-24.35-5C198.09,148.79,185.84,164.47,173.85,178.87Z" transform="translate(-2.5 -118.51)"/></g><path class="cls-2" d="M173.85,178.87c12-14.4,24.24-30.08,41.74-38.06,8.27-4.23,17.46.07,24.35,5,16.18,11.59,28.47,27.63,40.46,43.3,34.92,47.6,62.51,100.17,87.22,153.68a157.38,157.38,0,0,1,7,19.06c-32.11-54.79-61.56-111.65-101.91-161.08-11.78-13.81-24.06-28.54-41.12-35.9-9.7-4.12-19.57,1.31-27.52,6.6-29,24.2-50.23,55.91-70.46,87.41A915,915,0,0,0,26.92,503.35c11-66.52,37-129.65,65.83-190.27C115.82,266.17,141.52,220.17,173.85,178.87Z" transform="translate(-2.5 -118.51)"/><path class="cls-2" d="M516.85,142.52c10.94-7.58,23.7-.29,32.3,7.26C573.46,171,591.54,198.11,609,225a959.4,959.4,0,0,1,92,192.1c11.73,34.74,22.52,70.31,25,107.13a413.79,413.79,0,0,0-19.36-75.16,889.46,889.46,0,0,0-90.43-191c-16.33-25.66-33.72-50.88-54.79-72.9-8.49-8.31-17.46-17.13-29-20.89-9-2.77-17.24,3.54-24.5,8-19.42,15.27-34.62,35-49,54.89-25.63,36.23-48.37,74.47-69.08,113.73a92.65,92.65,0,0,1-12.24,17.49c24.09-57.22,53.51-112.48,89.23-163.33C481.31,175.77,495.93,155.28,516.85,142.52Z" transform="translate(-2.5 -118.51)"/><g id="_ff912eff" data-name="#ff912eff"><path class="cls-3" d="M204.07,171.47c8-5.29,17.82-10.72,27.52-6.6,17.06,7.36,29.34,22.09,41.12,35.9,40.35,49.43,69.8,106.29,101.91,161.08-20.15,57.19-44,114.82-45.45,176.31-1,19.8,4.26,39.11,11.52,57.3-21.25-15.49-35-38.74-47.94-61.16-32.62-60.58-53.29-126.81-69.62-193.41C211.25,285.3,200.35,228.59,204.07,171.47Z" transform="translate(-2.5 -118.51)"/></g><g id="_f41cb2ff" data-name="#f41cb2ff"><path class="cls-4" d="M507.92,172.31c7.26-4.45,15.46-10.76,24.5-8,11.55,3.76,20.52,12.58,29,20.89,21.07,22,38.46,47.24,54.79,72.9a889.46,889.46,0,0,1,90.43,191A413.79,413.79,0,0,1,726,524.24c1.86,22.71.91,47.49-11.48,67.36-10.28,16.73-32.81,23.11-50.74,15.82-25.45-10.35-42.47-33.5-56.94-55.77-38.53-63.68-61-135.63-79-207.44C515.54,287.85,504.24,230.26,507.92,172.31Z" transform="translate(-2.5 -118.51)"/><path class="cls-4" d="M133.61,258.88c20.23-31.5,41.48-63.21,70.46-87.41-3.72,57.12,7.18,113.83,19.06,169.42-15.42,65-35.83,129.33-66.81,188.71-14.51,26.57-31.2,53.47-56.46,71.08-14.15,10-34.09,13.63-49.54,4.55-16.22-9.11-23.18-28.07-25.41-45.63-2-18.67-1.89-37.84,2-56.25A915,915,0,0,1,133.61,258.88Z" transform="translate(-2.5 -118.51)"/></g><g id="_f25511ff" data-name="#f25511ff"><path class="cls-5" d="M458.9,227.2c14.4-19.87,29.6-39.62,49-54.89-3.68,57.95,7.62,115.54,19.91,171.9-14.51,59.34-33.07,118-59.86,173-12.54,25-26.79,49.61-46.4,69.77-11.33,11.15-25.11,21.54-41.44,23.22-14.62,1.64-28.8-5.14-39.44-14.73-7.26-18.19-12.54-37.5-11.52-57.3,1.42-61.49,25.3-119.12,45.45-176.31.73-.88,2.23-2.55,3-3.43a92.65,92.65,0,0,0,12.24-17.49C410.53,301.67,433.27,263.43,458.9,227.2Z" transform="translate(-2.5 -118.51)"/></g></svg>