<svg width="512" height="512" xmlns="http://www.w3.org/2000/svg">

 <g>
  <title>background</title>
  <rect fill="none" id="canvas_background" height="402" width="582" y="-1" x="-1"/>
 </g>
 <g>
  <title>Layer 1</title>
  <path opacity="0.4" id="svg_4" fill="#f13ab1" class="active-path" d="m192,379.313l-100.64,100.64c-6.224,6.272 -16.352,6.32 -22.624,0.096c-3.008,-2.992 -4.72,-7.056 -4.736,-11.296l0,-89.44l128,0z"/>
  <path opacity="0.4" id="svg_6" fill="#f13ab1" class="active-path" d="m485.28,51.633l-85.28,77.44l0,116.32l85.28,77.44c6.56,5.92 16.672,5.408 22.592,-1.152c2.608,-2.896 4.08,-6.624 4.128,-10.528l0,-247.68c-0.016,-8.832 -7.2,-15.984 -16.032,-15.968c-3.952,0.016 -7.76,1.488 -10.688,4.128z"/>
  <path id="svg_7" fill="#f13ab1" class="active-path" d="m304,27.313l-240,0c-35.344,0 -64,28.656 -64,64l0,192c0,35.344 28.656,64 64,64l240,0c35.344,0 64,-28.656 64,-64l0,-192c0,-35.344 -28.656,-64 -64,-64zm-112,240l-80,0c-17.68,0 -32,-14.32 -32,-32s14.32,-32 32,-32l80,0c17.68,0 32,14.32 32,32s-14.32,32 -32,32zm64,-96l-144,0c-17.68,0 -32,-14.32 -32,-32s14.32,-32 32,-32l144,0c17.68,0 32,14.32 32,32s-14.32,32 -32,32z"/>
 </g>
</svg>