<svg width="512" height="512" xmlns="http://www.w3.org/2000/svg">

 <g>
  <title>background</title>
  <rect fill="none" id="canvas_background" height="402" width="582" y="-1" x="-1"/>
 </g>
 <g>
  <title>Layer 1</title>
  <path id="svg_4" fill="#f13ab1" class="active-path" d="m191.142,162.858l-122.857,-122.858l78.715,0c11.046,0 20,-8.954 20,-20s-8.954,-20 -20,-20l-87,0c-33.084,0 -60,26.916 -60,60l0,87c0,11.046 8.954,20 20,20s20,-8.954 20,-20l0,-78.715l122.858,122.858c3.905,3.905 9.023,5.857 14.142,5.857s10.237,-1.952 14.142,-5.857c7.811,-7.811 7.811,-20.475 0,-28.285z"/>
  <path id="svg_7" fill="#f13ab1" class="active-path" d="m191.142,320.858c-7.811,-7.81 -20.474,-7.811 -28.284,-0.001l-122.858,122.858l0,-78.715c0,-11.046 -8.954,-20 -20,-20s-20,8.954 -20,20l0,87c0,33.084 26.916,60 60,60l87,0c11.046,0 20,-8.954 20,-20c0,-11.046 -8.954,-20 -20,-20l-78.715,0l122.857,-122.857c7.811,-7.811 7.811,-20.475 0,-28.285z"/>
  <path id="svg_10" fill="#f13ab1" class="active-path" d="m492,345c-11.046,0 -20,8.954 -20,20l0,78.715l-122.858,-122.858c-7.811,-7.811 -20.474,-7.811 -28.284,0c-7.81,7.811 -7.811,20.475 0,28.285l122.857,122.858l-78.715,0c-11.046,0 -20,8.954 -20,20c0,11.046 8.954,20 20,20l87,0c33.084,0 60,-26.916 60,-60l0,-87c0,-11.046 -8.954,-20 -20,-20z"/>
  <path id="svg_13" fill="#f13ab1" class="active-path" d="m452,0l-87,0c-11.046,0 -20,8.954 -20,20s8.954,20 20,20l78.715,0l-122.857,122.857c-7.811,7.811 -7.811,20.475 0,28.285c3.905,3.906 9.023,5.858 14.142,5.858c5.119,0 10.237,-1.952 14.142,-5.857l122.858,-122.858l0,78.715c0,11.046 8.954,20 20,20c11.046,0 20,-8.954 20,-20l0,-87c0,-33.084 -26.916,-60 -60,-60z"/>
 </g>
</svg>