<svg width="435.19999999999993" height="435.19999999999993" xmlns="http://www.w3.org/2000/svg">

 <g>
  <title>background</title>
  <rect fill="none" id="canvas_background" height="402" width="582" y="-1" x="-1"/>
 </g>
 <g>
  <title>Layer 1</title>
  <path id="svg_4" fill="#f13ab1" class="active-path" d="m356.864,224.768c0,-8.704 -6.656,-15.36 -15.36,-15.36s-15.36,6.656 -15.36,15.36c0,59.904 -48.64,108.544 -108.544,108.544c-59.904,0 -108.544,-48.64 -108.544,-108.544c0,-8.704 -6.656,-15.36 -15.36,-15.36c-8.704,0 -15.36,6.656 -15.36,15.36c0,71.168 53.248,131.072 123.904,138.752l0,40.96l-55.808,0c-8.704,0 -15.36,6.656 -15.36,15.36s6.656,15.36 15.36,15.36l142.336,0c8.704,0 15.36,-6.656 15.36,-15.36s-6.656,-15.36 -15.36,-15.36l-55.808,0l0,-40.96c70.656,-7.68 123.904,-67.584 123.904,-138.752z"/>
  <path id="svg_7" fill="#f13ab1" class="active-path" d="m217.6,0c-47.104,0 -85.504,38.4 -85.504,85.504l0,138.752c0,47.616 38.4,85.504 85.504,86.016c47.104,0 85.504,-38.4 85.504,-85.504l0,-139.264c0,-47.104 -38.4,-85.504 -85.504,-85.504z"/>
 </g>
</svg>