<svg width="512.001" height="512.001" xmlns="http://www.w3.org/2000/svg">

 <g>
  <title>background</title>
  <rect fill="none" id="canvas_background" height="402" width="582" y="-1" x="-1"/>
 </g>
 <g>
  <title>Layer 1</title>
  <path id="svg_4" fill="#f13ab1" class="active-path" d="m506.132,477.792l-123.098,-123.099l78.869,0c11.068,0 20.039,-8.971 20.039,-20.039s-8.972,-20.039 -20.039,-20.039l-87.17,0c-33.149,0 -60.117,26.969 -60.117,60.117l0,86.168c0,11.068 8.971,20.039 20.039,20.039s20.039,-8.972 20.039,-20.039l0,-77.867l123.097,123.097c3.914,3.913 9.043,5.869 14.171,5.869c5.128,0 10.257,-1.957 14.171,-5.869c7.824,-7.825 7.824,-20.513 -0.001,-28.338z"/>
  <path id="svg_7" fill="#f13ab1" class="active-path" d="m137.269,314.615l-87.17,0c-11.068,0 -20.039,8.971 -20.039,20.039s8.971,20.039 20.039,20.039l78.869,0l-123.099,123.099c-7.825,7.826 -7.825,20.514 0,28.339c3.914,3.913 9.043,5.869 14.171,5.869c5.128,0 10.257,-1.957 14.171,-5.869l123.097,-123.097l0,77.867c0,11.068 8.971,20.039 20.039,20.039s20.039,-8.972 20.039,-20.039l0,-86.168c0,-33.149 -26.969,-60.118 -60.117,-60.118z"/>
  <path id="svg_10" fill="#f13ab1" class="active-path" d="m506.132,5.87c-7.826,-7.826 -20.515,-7.826 -28.34,0l-123.099,123.098l0,-77.868c0,-11.068 -8.971,-20.039 -20.039,-20.039s-20.039,8.971 -20.039,20.039l0,86.168c0,33.149 26.969,60.117 60.117,60.117l87.17,0c11.068,0 20.039,-8.971 20.039,-20.039s-8.972,-20.039 -20.039,-20.039l-78.869,0l123.099,-123.098c7.825,-7.826 7.825,-20.514 0,-28.339z"/>
  <path id="svg_13" fill="#f13ab1" class="active-path" d="m177.347,30.059c-11.068,0 -20.039,8.971 -20.039,20.039l0,78.869l-123.098,-123.097c-7.826,-7.826 -20.515,-7.826 -28.34,0c-7.825,7.826 -7.825,20.514 0,28.339l123.097,123.098l-78.869,0c-11.068,0 -20.039,8.971 -20.039,20.039s8.971,20.039 20.039,20.039l87.17,0c33.149,0 60.117,-26.969 60.117,-60.117l0,-87.17c0.001,-11.067 -8.97,-20.039 -20.038,-20.039z"/>
 </g>
</svg>